HIERARCHY
ROOT Hips
{
	OFFSET 0.00000 0.00000 0.00000
	CHANNELS 6 Xposition Yposition Zposition Yrotation Zrotation Xrotation 
	JOINT Lumbar
	{
		OFFSET 0 0 0
		CHANNELS 3 Zrotation Xrotation Yrotation
		JOINT Neck
		{
			OFFSET 0.00 0.2701 0.00
			CHANNELS 3 Zrotation Xrotation Yrotation
			End Site
			{
				OFFSET 0.00 0.1379 0.00
			}
		}
		JOINT RightShoulder
		{
			OFFSET 0.0119 0.2289 0.1181
			CHANNELS 3 Zrotation Xrotation Yrotation
			JOINT RightElbow
			{
				OFFSET 0.00 -0.1475 0.00
				CHANNELS 2 Zrotation Yrotation
				JOINT RightWrist
				{
					OFFSET 0.00 -0.1605 0.00
					CHANNELS 2 Zrotation Xrotation
					End Site
					{
						OFFSET 0.0040 -0.1068 0.0006
					}
				}
			}
		}
		JOINT LeftShoulder
		{
			OFFSET 0.0119 0.2289 -0.1181
			CHANNELS 3 Zrotation Xrotation Yrotation
			JOINT LeftElbow
			{
				OFFSET 0.00 -0.1475 0.00
				CHANNELS 2 Zrotation Yrotation
				JOINT LeftWrist
				{
					OFFSET 0.00 -0.1605 0.00
					CHANNELS 2 Zrotation Xrotation
					End Site
					{
						OFFSET 0.0040 -0.1068 -0.0006
					}
				}
			}
		}
	}
	JOINT RightHip
	{
		OFFSET 0.0316 -0.0424 0.0458
		CHANNELS 3 Zrotation Xrotation Yrotation
		JOINT RightKnee
		{
			OFFSET 0.00 -0.2438 0.00
			CHANNELS 1 Zrotation
			JOINT RightAnkle
			{
				OFFSET 0.00 -0.2449 0.00
				CHANNELS 3 Zrotation Xrotation Yrotation
				End Site
				{
					OFFSET 0.1237 -0.0542 0.0051
				}
			}
		}
	}
	JOINT LeftHip
	{
		OFFSET 0.0316 -0.0424 -0.0458
		CHANNELS 3 Zrotation Xrotation Yrotation
		JOINT LeftKnee
		{
			OFFSET 0.00 -0.2438 0.00
			CHANNELS 1 Zrotation
			JOINT LeftAnkle
			{
				OFFSET 0.00 -0.2449 0.00
				CHANNELS 3 Zrotation Xrotation Yrotation
				End Site
				{
					OFFSET 0.1237 -0.0542 -0.0051
				}
			}
		}
	}
}
MOTION
Frames: 13
Frame Time: 0.02
0.16915 -0.14415 0.01888 -177.74051 -31.12592 0.89777 36.34762 1.39965 -0.85754 -6.85263 -1.91929 -2.11902 77.43465 -32.30372 45.37998 107.7103 82.93355 -6.40753 -4.3637 22.68041 29.46959 -43.71558 94.01436 -87.08735 11.3918 0.68794 96.90582 -10.49111 -2.3216 -77.62432 -7.33374 -1.34186 -2.92951 97.93445 12.42802 9.3606 -74.69185 -9.62435 2.90238 3.79828
0.16908 -0.14402 0.01892 -177.74593 -31.24221 0.87363 36.42286 1.3736 -0.86199 -6.40276 -1.83548 -2.11902 78.85899 -31.83532 45.16474 107.32357 83.68331 -7.28087 -4.52972 22.83783 29.39629 -43.88619 93.9361 -87.08083 10.6432 0.72392 97.00157 -10.47803 -2.2894 -77.60707 -7.33735 -1.33848 -2.92836 98.04135 12.41251 9.34461 -74.67392 -9.62986 2.89962 3.79667
0.16902 -0.14391 0.01896 -177.74535 -31.35114 0.85651 36.4928 1.34576 -0.8556 -5.93204 -1.75688 -2.11903 80.05919 -31.5936 45.08284 106.89384 84.43077 -8.20904 -4.73579 22.92036 29.1972 -43.88246 93.84395 -87.0402 9.95651 0.84484 97.09412 -10.45319 -2.23584 -77.59029 -7.33926 -1.33969 -2.92913 98.14227 12.40812 9.35349 -74.65817 -9.63437 2.89625 3.79444
0.16895 -0.14379 0.01901 -177.74789 -31.46251 0.8364 36.56359 1.31947 -0.85445 -5.47075 -1.67663 -2.11903 81.35074 -31.24191 44.93451 106.48238 85.17398 -9.09368 -4.9195 23.02491 29.04702 -43.9394 93.7602 -87.00442 9.26543 0.92782 97.18731 -10.43554 -2.19465 -77.57343 -7.34198 -1.33859 -2.9289 98.24565 12.39629 9.34767 -74.64168 -9.6397 2.89336 3.79263
0.16888 -0.14366 0.01906 -177.74959 -31.5778 0.81561 36.64067 1.29029 -0.85125 -5.00801 -1.59271 -2.11903 82.68561 -30.90301 44.80897 106.06131 85.94854 -10.04484 -5.12051 23.18566 28.93498 -44.08316 93.66689 -87.00899 8.47154 1.0078 97.28371 -10.4106 -2.14301 -77.55587 -7.34456 -1.33839 -2.92916 98.35018 12.39349 9.35467 -74.62418 -9.64369 2.88976 3.79028
0.16883 -0.14355 0.0191 -177.75128 -31.68304 0.79787 36.70352 1.26662 -0.84991 -4.54429 -1.51801 -2.11903 83.87605 -30.59797 44.66865 105.65604 86.6515 -10.8729 -5.29508 23.21166 28.71436 -44.00482 93.59019 -86.92469 7.90764 1.11368 97.37266 -10.39767 -2.10749 -77.53994 -7.34702 -1.33747 -2.92889 98.45067 12.37535 9.34206 -74.60928 -9.65007 2.88739 3.78886
0.16881 -0.1435 0.01915 -177.75482 -31.7635 0.78647 36.72804 1.25878 -0.85796 -4.07943 -1.46636 -2.11903 84.73903 -30.32759 44.45109 105.30208 87.18629 -11.37523 -5.38706 22.85643 28.19978 -43.31338 93.5665 -86.58471 7.96182 1.27774 97.44301 -10.42335 -2.12502 -77.52833 -7.34967 -1.3331 -2.92646 98.54398 12.30661 9.26162 -74.6012 -9.6642 2.88915 3.79049
0.16881 -0.14346 0.0192 -177.7584 -31.83388 0.77793 36.73853 1.25649 -0.86809 -3.61533 -1.42411 -2.11904 85.46148 -30.08648 44.21508 104.96821 87.6433 -11.74899 -5.45102 22.37202 27.58405 -42.41037 93.55951 -86.16034 8.24587 1.46371 97.50577 -10.46104 -2.15889 -77.51837 -7.35224 -1.32793 -2.92346 98.63298 12.22305 9.16199 -74.59566 -9.68057 2.89207 3.79302
0.1688 -0.14341 0.01925 -177.76158 -31.90815 0.7683 36.75567 1.25152 -0.87633 -3.15317 -1.37838 -2.11904 86.23804 -29.83638 43.99007 104.62903 88.11532 -12.16527 -5.52775 21.96382 27.0302 -41.63059 93.54249 -85.78723 8.42642 1.63485 97.57129 -10.49151 -2.18297 -77.50772 -7.3548 -1.32337 -2.92087 98.72232 12.15004 9.07642 -74.58886 -9.69525 2.89405 3.79491
0.16879 -0.14337 0.0193 -177.76611 -31.98516 0.75806 36.77142 1.24716 -0.88813 -2.6799 -1.32942 -2.11904 87.04872 -29.57531 43.75819 104.27168 88.67107 -12.64928 -5.60584 21.47984 26.4051 -40.73157 93.53504 -85.35845 8.60563 1.82935 97.63969 -10.52895 -2.21606 -77.49684 -7.35752 -1.31794 -2.91773 98.81829 12.06165 8.96973 -74.58253 -9.71266 2.8977 3.7977
0.16878 -0.14332 0.01934 -177.768 -32.05405 0.74965 36.78687 1.2429 -0.89321 -2.2311 -1.28943 -2.11904 87.75687 -29.34163 43.53507 103.95789 89.03666 -12.96241 -5.67379 21.12325 25.90576 -40.03173 93.5121 -85.02595 8.84065 1.9795 97.70024 -10.55498 -2.23481 -77.48682 -7.35989 -1.31405 -2.91556 98.8995 12.00122 8.90146 -74.57584 -9.72501 2.89824 3.79889
0.16875 -0.14328 0.01937 -177.76189 -32.10385 0.74585 36.80432 1.2373 -0.87884 -1.84254 -1.27132 -2.11904 88.22594 -29.1722 43.3353 103.75752 88.87188 -12.82329 -5.72158 21.15625 25.78087 -39.94393 93.44004 -84.98089 9.17984 1.99953 97.74168 -10.54559 -2.20776 -77.47874 -7.36139 -1.3147 -2.91623 98.94099 12.02527 8.94994 -74.56722 -9.72212 2.88909 3.79508
0.16871 -0.14323 0.01939 -177.75328 -32.14566 0.74371 36.82207 1.23166 -0.85778 -1.48014 -1.26201 -2.11905 88.59585 -29.02909 43.14539 103.601 88.5225 -12.51856 -5.75974 21.32104 25.78621 -40.06285 93.35237 -85.03558 9.5657 1.97414 97.77533 -10.52456 -2.16621 -77.47147 -7.36254 -1.31689 -2.91786 98.96777 12.07727 9.03659 -74.55818 -9.71419 2.8769 3.78971
